:SAMPLES-PER-SECOND 30
:FULLY-SPECIFIED
:DEGREES
581
root  -3.56595 38.4958 33.8641 -171.984 -34.2326 172.207
RightUpLeg  -13.2489 -19.7674 -21.3597
RightLeg  32.1341 -14.5312 -9.86701
RightFoot  -0.589582 -2.60025 27.1142
RightToes  -1.74624e-010 0 -3.6325e-017
Spine  19.2358 8.83308 16.9114
Spine1  4.2088 13.268 -4.69813
HEad  -24.622 -54.406 11.7691
LeftShoulder1  0.694265 0.0824687 -13.2778
LeftArm  5.58049 34.996 -48.3971
LeftForeArm  135.692 -73.7949 -141.144
LeftHand  -4.23531 -5.20116 44.4803
RightShoulder  0.444962 -0.387684 6.66217
RightArm  -11.0254 26.4126 60.594
RightForeArm  -0.425518 77.2188 103.979
RightHand  -4.16739 6.66699 -38.7744
LeftUpLeg  -19.3079 -8.94147 6.69434
LeftLeg  17.592 -1.69874 0.0530365
LeftFoot  -4.2179 0.875854 -13.6157
LeftToes  -5.82109e-011 1.10366e-010 -8.03124e-011
582
root  -3.13999 38.1834 33.9577 -171.498 -34.8366 172.137
RightUpLeg  -14.0762 -20.6978 -20.6293
RightLeg  32.8161 -13.8493 -9.67193
RightFoot  -4.3407 -1.68993 26.6377
RightToes  -1.74624e-010 0 -3.6325e-017
Spine  20.6517 8.16599 18.2797
Spine1  2.18554 12.7687 -4.03182
HEad  -24.6147 -53.7784 10.5509
LeftShoulder1  0.77303 -0.311127 -13.2466
LeftArm  6.01716 37.6708 -46.5027
LeftForeArm  138.132 -72.7099 -144.057
LeftHand  -4.18324 -5.22822 43.8841
RightShoulder  0.204792 -1.81994 4.34477
RightArm  -21.9931 32.9441 60.1559
RightForeArm  -2.27998 77.4435 97.381
RightHand  -4.6187 6.77097 -42.4062
LeftUpLeg  -21.7664 -10.6507 7.88255
LeftLeg  20.1192 -0.83179 -0.0410832
LeftFoot  -5.33656 0.785606 -14.335
LeftToes  -5.82109e-011 1.10366e-010 -8.03124e-011
583
root  -2.76023 37.7622 34.0289 -172.241 -34.3721 172.406
RightUpLeg  -15.0165 -21.0702 -19.9543
RightLeg  35.0782 -12.9727 -9.85886
RightFoot  -8.19369 -0.768627 25.493
RightToes  -1.74624e-010 0 -3.6325e-017
Spine  21.9401 7.47695 19.137
Spine1  1.85688 12.1951 -2.72412
HEad  -24.5181 -51.7745 9.10476
LeftShoulder1  0.819974 -0.510891 -13.4266
LeftArm  5.30797 38.3451 -46.0079
LeftForeArm  138.811 -72.2843 -145.047
LeftHand  -4.02503 -5.1256 42.7558
RightShoulder  0.0975899 -2.57711 2.58453
RightArm  -23.324 36.4109 59.5502
RightForeArm  -4.54152 77.4963 95.3412
RightHand  -4.78124 6.55726 -44.4579
LeftUpLeg  -23.6462 -10.9865 8.86915
LeftLeg  24.3513 -0.872765 -0.0949499
LeftFoot  -7.32496 0.587799 -15.4529
LeftToes  -5.82109e-011 1.10366e-010 -8.03124e-011
584
root  -2.50616 37.3821 34.0461 -173.679 -32.0828 172.893
RightUpLeg  -16.3012 -19.9949 -19.4635
RightLeg  37.7463 -11.541 -9.69041
RightFoot  -10.6892 -0.211925 24.3468
RightToes  -1.74624e-010 0 -3.6325e-017
Spine  22.487 6.97805 18.987
Spine1  3.364 11.564 -1.17903
HEad  -23.2956 -48.4215 6.7119
LeftShoulder1  0.817901 -0.412107 -13.9371
LeftArm  3.74642 37.7599 -47.0405
LeftForeArm  138.255 -72.4999 -144.511
LeftHand  -3.82071 -4.91299 41.5468
RightShoulder  0.0870359 -2.65389 2.17716
RightArm  -16.1448 36.638 61.2946
RightForeArm  -5.93292 77.4803 98.018
RightHand  -3.9109 5.10339 -41.6036
LeftUpLeg  -24.4468 -10.3614 9.75417
LeftLeg  28.8676 -0.795093 -0.132639
LeftFoot  -8.65355 0.44315 -16.5471
LeftToes  -5.82109e-011 1.10366e-010 -8.03124e-011
585
root  -2.4294 37.1477 33.9813 -175.03 -28.8219 173.245
RightUpLeg  -17.3741 -18.0486 -19.2977
RightLeg  39.4494 -9.93062 -8.92371
RightFoot  -11.656 -0.0129048 23.9633
RightToes  -1.74624e-010 0 -3.6325e-017
Spine  21.9122 6.51209 18.0332
Spine1  6.12278 10.6381 0.12921
HEad  -21.2571 -44.5558 4.22605
LeftShoulder1  0.787954 -0.172845 -14.5292
LeftArm  2.86039 35.6505 -48.9717
LeftForeArm  135.809 -73.1323 -142.728
LeftHand  -3.55298 -4.53583 40.2292
RightShoulder  0.181585 -1.96118 3.70867
RightArm  -5.44898 33.6684 64.7409
RightForeArm  -4.45091 77.4229 99.8972
RightHand  -3.10116 3.87319 -37.8316
LeftUpLeg  -24.2895 -9.64636 10.397
LeftLeg  32.5241 -1.08903 -0.397282
LeftFoot  -8.79878 0.433165 -17.0512
LeftToes  -5.82109e-011 1.10366e-010 -8.03124e-011
